<svg width="144" height="96" viewBox="0 0 144 96" fill="none" xmlns="http://www.w3.org/2000/svg">
<path d="M116.59 0H84.5951L72.8412 57.8089H71.2791L56.9664 0H43.2083L29.4127 57.8089H27.8505L15.978 0H0L18.3212 82.2602H36.1097L48.9399 29.1473H50.1897L64.2836 82.2602H85.2496L91.1187 63.3145L121.581 63.4764L127.402 82.2602H144L116.59 0ZM95.6787 49.3885L105.647 17.1645H106.872L117.207 49.3885H95.6787Z" fill="url(#paint0_linear_12434_2076)"/>
<path d="M22.0105 87.1233H23.668L24.2929 91.4063C24.3288 91.6136 24.3476 91.8387 24.3647 92.0265H24.3835C24.4288 91.8387 24.4741 91.6136 24.5288 91.4063L25.5895 87.1233H26.8939L27.9624 91.4063C28.0171 91.6136 28.0624 91.8387 28.0984 92.0265H28.1249C28.1437 91.8387 28.1702 91.5942 28.1968 91.4063L28.8123 87.1233H30.4619L29.3747 93.7915H27.1001L26.3659 90.6647C26.3018 90.3635 26.2659 90.0639 26.23 89.8097H26.2112C26.1753 90.0639 26.1394 90.3635 26.0753 90.6647L25.377 93.7915H23.1119L22.0059 87.1233H22.0105Z" fill="url(#paint1_linear_12434_2076)"/>
<path d="M35.6724 91.2456C35.6724 92.9637 34.7663 93.9029 33.126 93.9029C31.4857 93.9029 30.5703 92.9637 30.5703 91.2456C30.5703 89.5275 31.4764 88.5964 33.126 88.5964C34.7757 88.5964 35.6724 89.5259 35.6724 91.2456ZM34.0961 91.2456C34.0961 90.2967 33.6978 89.8935 33.126 89.8935C32.5543 89.8935 32.1559 90.2967 32.1559 91.2456C32.1559 92.1945 32.5449 92.5977 33.126 92.5977C33.7072 92.5977 34.0961 92.1945 34.0961 91.2456Z" fill="url(#paint2_linear_12434_2076)"/>
<path d="M39.5852 88.7766V90.3732C39.5852 90.3732 39.3681 90.3165 38.9416 90.3165C38.5151 90.3165 38.2433 90.438 38.0714 90.5611V93.7916H36.4858V88.7863H37.6372L37.8996 89.5652C38.1355 89.115 38.5073 88.6924 39.0869 88.6924C39.4227 88.6924 39.5852 88.7766 39.5852 88.7766Z" fill="url(#paint3_linear_12434_2076)"/>
<path d="M43.5695 91.0954L44.9832 93.7916H43.2352L42.3291 91.9699C42.2291 91.7723 42.1213 91.7253 41.8761 91.7253V93.7916H40.3623V86.6343H41.8761V90.485C42.1026 90.485 42.1932 90.4283 42.2838 90.2971L43.1445 88.7847H44.902L43.5695 91.0954Z" fill="url(#paint4_linear_12434_2076)"/>
<path d="M48.0376 93.7915V87.1233H49.7326V89.5279H51.5806V87.1233H53.2756V93.7915H51.5806V91.0404H49.7326V93.7915H48.0376Z" fill="url(#paint5_linear_12434_2076)"/>
<path d="M59.1339 93.66C58.8808 93.7814 58.4809 93.8851 58.0732 93.8851C57.5202 93.8851 57.1312 93.6227 56.9594 93.077V93.0398C56.5969 93.5661 56.0267 93.9045 55.3738 93.9045C54.5489 93.9045 54.0693 93.3976 54.0693 92.6933C54.0693 91.6504 54.966 90.6934 56.8516 90.5898V90.4683C56.8516 90.0651 56.6438 89.8482 56.272 89.8482C55.4472 89.8482 54.6223 90.4311 54.6223 90.4311L54.0975 89.4449C54.0975 89.4449 55.1847 88.59 56.6704 88.59C57.8389 88.59 58.3825 89.1535 58.3825 90.3178V92.4212C58.3919 92.8163 58.4731 92.9183 58.6356 92.9183C58.7356 92.9183 58.8527 92.8908 58.898 92.8617L59.1339 93.66ZM56.85 92.1573V91.4998C55.9346 91.5565 55.5175 92.0164 55.5175 92.3176C55.5175 92.5248 55.6534 92.6657 55.8893 92.6657C56.233 92.6657 56.6141 92.4212 56.85 92.1589V92.1573Z" fill="url(#paint6_linear_12434_2076)"/>
<path d="M62.7078 88.7766V90.3732C62.7078 90.3732 62.4906 90.3165 62.0641 90.3165C61.6377 90.3165 61.3658 90.438 61.194 90.5611V93.7916H59.6084V88.7863H60.7597L61.0222 89.5652C61.2581 89.115 61.6299 88.6924 62.2094 88.6924C62.5453 88.6924 62.7078 88.7766 62.7078 88.7766Z" fill="url(#paint7_linear_12434_2076)"/>
<path d="M66.3083 86.6343H67.8752V93.7916H66.7332L66.5161 93.1066C66.163 93.5195 65.6288 93.9049 64.8664 93.9049C63.8604 93.9049 63.0449 93.1163 63.0449 91.3319C63.0449 89.4259 63.8604 88.5888 64.9664 88.5888C65.5553 88.5888 65.9896 88.843 66.3067 89.1523V86.6359L66.3083 86.6343ZM66.3083 92.3633V90.0623C66.1177 89.9409 65.874 89.8275 65.5741 89.8275C64.9492 89.8275 64.6321 90.166 64.6321 91.3302C64.6321 92.3164 64.968 92.6548 65.4741 92.6548C65.8272 92.6548 66.1084 92.5042 66.3083 92.3633Z" fill="url(#paint8_linear_12434_2076)"/>
<path d="M70.5343 92.9654C70.5343 94.3175 69.5017 95.3976 69.5017 95.3976L69.094 95.0494C69.094 95.0494 69.5658 94.5329 69.8282 93.8851C69.094 93.8851 68.7769 93.5467 68.7769 92.9654C68.7769 92.384 69.0846 92.0537 69.647 92.0537C70.2094 92.0537 70.5343 92.3824 70.5343 92.9654Z" fill="url(#paint9_linear_12434_2076)"/>
<path d="M73.8955 93.7915V87.1233H76.3872C78.1274 87.1233 78.8788 87.8941 78.8788 89.3029C78.8788 90.7116 78.1353 91.5197 76.3872 91.5197H75.5264V93.7932H73.8955V93.7915ZM75.5264 90.1757H76.3872C76.9402 90.1757 77.2386 89.8664 77.2386 89.3401C77.2386 88.8138 76.9402 88.5224 76.3872 88.5224H75.5264V90.1757Z" fill="url(#paint10_linear_12434_2076)"/>
<path d="M79.5889 86.6343H81.1745V92.4475C81.1745 92.8329 81.2651 92.9269 81.4916 92.9269C81.6275 92.9269 81.7447 92.8993 81.8087 92.8799L82.0446 93.6782C81.7634 93.8094 81.3744 93.9033 80.848 93.9033C80.0778 93.9033 79.5889 93.4062 79.5889 92.4848V86.6343Z" fill="url(#paint11_linear_12434_2076)"/>
<path d="M87.4083 93.66C87.1553 93.7814 86.7553 93.8851 86.3476 93.8851C85.7946 93.8851 85.4056 93.6227 85.2338 93.077V93.0398C84.8714 93.5661 84.3012 93.9045 83.6482 93.9045C82.8233 93.9045 82.3438 93.3976 82.3438 92.6933C82.3438 91.6504 83.2404 90.6934 85.126 90.5898V90.4683C85.126 90.0651 84.9182 89.8482 84.5464 89.8482C83.7216 89.8482 82.8968 90.4311 82.8968 90.4311L82.3719 89.4449C82.3719 89.4449 83.4591 88.59 84.9448 88.59C86.1133 88.59 86.6569 89.1535 86.6569 90.3178V92.4212C86.6663 92.8163 86.7475 92.9183 86.91 92.9183C87.01 92.9183 87.1271 92.8908 87.1724 92.8617L87.4083 93.66ZM85.1244 92.1573V91.4998C84.209 91.5565 83.7919 92.0164 83.7919 92.3176C83.7919 92.5248 83.9278 92.6657 84.1637 92.6657C84.5074 92.6657 84.8885 92.4212 85.1244 92.1589V92.1573Z" fill="url(#paint12_linear_12434_2076)"/>
<path d="M87.061 88.7764H88.756L89.3715 90.9171C89.4715 91.3203 89.5621 91.7996 89.6074 92.1477H89.6339C89.6793 91.7996 89.7605 91.3122 89.8511 90.9268L90.4494 88.7764H92.0803L90.3494 94.2431C89.9604 95.511 89.4621 96 88.5467 96C88.0296 96 87.6312 95.8025 87.3782 95.6244L87.8499 94.4779C87.9952 94.5443 88.1483 94.5994 88.303 94.5994C88.4936 94.5994 88.6466 94.4779 88.7107 94.214L88.8107 93.895L87.0626 88.7764H87.061Z" fill="url(#paint13_linear_12434_2076)"/>
<path d="M95.1323 93.7915V87.1233H96.8273V89.5279H98.6754V87.1233H100.37V93.7915H98.6754V91.0404H96.8273V93.7915H95.1323Z" fill="url(#paint14_linear_12434_2076)"/>
<path d="M106.234 93.66C105.981 93.7814 105.581 93.8851 105.173 93.8851C104.62 93.8851 104.231 93.6227 104.059 93.077V93.0398C103.697 93.5661 103.127 93.9045 102.474 93.9045C101.649 93.9045 101.169 93.3976 101.169 92.6933C101.169 91.6504 102.066 90.6934 103.952 90.5898V90.4683C103.952 90.0651 103.744 89.8482 103.372 89.8482C102.547 89.8482 101.722 90.4311 101.722 90.4311L101.198 89.4449C101.198 89.4449 102.285 88.59 103.77 88.59C104.939 88.59 105.483 89.1535 105.483 90.3178V92.4212C105.492 92.8163 105.573 92.9183 105.736 92.9183C105.836 92.9183 105.953 92.8908 105.998 92.8617L106.234 93.66ZM103.95 92.1573V91.4998C103.035 91.5565 102.618 92.0164 102.618 92.3176C102.618 92.5248 102.753 92.6657 102.989 92.6657C103.333 92.6657 103.714 92.4212 103.95 92.1589V92.1573Z" fill="url(#paint15_linear_12434_2076)"/>
<path d="M109.798 88.7766V90.3732C109.798 90.3732 109.58 90.3165 109.154 90.3165C108.728 90.3165 108.456 90.438 108.284 90.5611V93.7916H106.698V88.7863H107.85L108.112 89.5652C108.348 89.115 108.72 88.6924 109.299 88.6924C109.635 88.6924 109.798 88.7766 109.798 88.7766Z" fill="url(#paint16_linear_12434_2076)"/>
<path d="M113.408 86.6343H114.975V93.7916H113.833L113.616 93.1066C113.263 93.5195 112.728 93.9049 111.966 93.9049C110.96 93.9049 110.145 93.1163 110.145 91.3319C110.145 89.4259 110.96 88.5888 112.066 88.5888C112.655 88.5888 113.089 88.843 113.406 89.1523V86.6359L113.408 86.6343ZM113.408 92.3633V90.0623C113.217 89.9409 112.974 89.8275 112.674 89.8275C112.049 89.8275 111.732 90.166 111.732 91.3302C111.732 92.3164 112.068 92.6548 112.574 92.6548C112.927 92.6548 113.208 92.5042 113.408 92.3633Z" fill="url(#paint17_linear_12434_2076)"/>
<path d="M119.836 92.1656L120.425 93.1792C120.425 93.1792 119.681 93.9031 118.196 93.9031C116.71 93.9031 115.794 92.9639 115.794 91.2539C115.794 89.5439 116.765 88.5869 118.305 88.5869C119.645 88.5869 120.434 89.4128 120.434 90.6062C120.434 91.1972 120.325 91.6393 120.325 91.6393H117.254C117.344 92.3437 117.733 92.6352 118.405 92.6352C119.166 92.6352 119.836 92.1656 119.836 92.1656ZM117.28 90.6726H119.038C119.047 90.6159 119.047 90.5592 119.047 90.5042C119.038 90.0815 118.756 89.7803 118.286 89.7803C117.788 89.7803 117.407 90.0621 117.28 90.6726Z" fill="url(#paint18_linear_12434_2076)"/>
<path d="M124.346 88.7766V90.3732C124.346 90.3732 124.129 90.3165 123.702 90.3165C123.276 90.3165 123.004 90.438 122.832 90.5611V93.7916H121.247V88.7863H122.398L122.66 89.5652C122.896 89.115 123.268 88.6924 123.848 88.6924C124.183 88.6924 124.346 88.7766 124.346 88.7766Z" fill="url(#paint19_linear_12434_2076)"/>
<path d="M126.358 92.9654C126.358 93.5564 126.05 93.8851 125.471 93.8851C124.891 93.8851 124.601 93.5564 124.601 92.9654C124.601 92.3743 124.908 92.0537 125.471 92.0537C126.033 92.0537 126.358 92.3824 126.358 92.9654Z" fill="url(#paint20_linear_12434_2076)"/>
<path d="M126.912 23.9786L130.944 23.6451L131.102 24.1147L127.743 26.4513L131.728 25.9801L131.967 26.6926L126.853 27.2026L126.619 26.5031L129.609 24.4126L126 24.662L125.766 23.9624L130.077 21.0671L130.316 21.7796L126.912 23.9786Z" fill="url(#paint21_linear_12434_2076)"/>
<path d="M127.769 30.0849C127.616 29.6283 127.624 29.2283 127.796 28.885C127.967 28.5417 128.286 28.2859 128.75 28.1175L129.298 27.9199C129.759 27.7531 130.158 27.7499 130.495 27.9102C130.832 28.0705 131.078 28.3782 131.231 28.8348C131.384 29.2915 131.378 29.6914 131.209 30.0331C131.04 30.3748 130.726 30.629 130.265 30.7958L129.708 30.9966C129.245 31.1634 128.845 31.1682 128.506 31.0079C128.169 30.8492 127.922 30.5416 127.769 30.0833V30.0849ZM128.399 29.8582C128.48 30.0979 128.614 30.2566 128.803 30.3359C128.992 30.4153 129.217 30.4072 129.478 30.3116L130.036 30.1108C130.297 30.0169 130.478 29.8777 130.576 29.6947C130.675 29.5117 130.684 29.3012 130.603 29.0615C130.523 28.8235 130.389 28.6648 130.203 28.5838C130.017 28.5029 129.792 28.511 129.53 28.6049L128.972 28.8057C128.711 28.8996 128.53 29.0389 128.428 29.2235C128.328 29.4081 128.317 29.6186 128.397 29.8566L128.399 29.8582Z" fill="url(#paint22_linear_12434_2076)"/>
<path d="M128.627 32.4799L131.992 31.2638L132.223 31.9488L128.858 33.1648L128.627 32.4799ZM131.839 33.4709C131.89 33.3851 131.918 33.2895 131.925 33.1843C131.931 33.079 131.914 32.9657 131.873 32.8458C131.8 32.6289 131.686 32.4815 131.529 32.4022C131.373 32.3244 131.194 32.3228 130.987 32.3957L131.612 32.0913C131.847 32.1253 132.048 32.2062 132.218 32.3374C132.389 32.4686 132.507 32.637 132.578 32.8426C132.631 33.0013 132.657 33.1535 132.656 33.2976C132.656 33.4417 132.628 33.5778 132.573 33.7057L131.839 33.4693V33.4709Z" fill="url(#paint23_linear_12434_2076)"/>
<path d="M129.613 35.4171L134.326 33.7152L134.556 34.4002L129.842 36.1021L129.613 35.4171ZM130.191 35.4916L130.991 35.2519L133.681 36.2915L133.953 37.0979L130.191 35.4916ZM130.394 37.7392L131.926 35.8219L132.515 36.1021L130.645 38.484L130.395 37.7392H130.394Z" fill="url(#paint24_linear_12434_2076)"/>
<path d="M130.7 38.6527L136.018 38.7515L136.215 39.3361L132.108 42.8402L131.859 42.1018L135.206 39.3749L130.949 39.3943L130.7 38.6559V38.6527ZM132.014 39.1093L132.642 38.8826L133.506 41.4525L132.878 41.6792L132.014 39.1093Z" fill="url(#paint25_linear_12434_2076)"/>
<path d="M132.334 43.5107L137.047 41.8088L137.278 42.4938L132.565 44.1957L132.334 43.5107ZM133.046 45.6271L135.085 44.8904C135.322 44.8045 135.485 44.675 135.572 44.5017C135.66 44.3285 135.665 44.1244 135.585 43.8912C135.51 43.6678 135.396 43.514 135.241 43.433C135.088 43.352 134.908 43.3472 134.704 43.4217L135.329 43.1172C135.563 43.1529 135.765 43.2371 135.932 43.3715C136.099 43.5059 136.218 43.6775 136.289 43.888C136.416 44.2669 136.396 44.6021 136.227 44.8968C136.058 45.1899 135.755 45.4166 135.319 45.5737L133.278 46.3121L133.046 45.6271Z" fill="url(#paint26_linear_12434_2076)"/>
<path d="M134.028 48.7083C133.875 48.2517 133.883 47.8517 134.055 47.5084C134.227 47.1652 134.544 46.9093 135.009 46.7409L135.558 46.5433C136.019 46.3766 136.417 46.3733 136.754 46.5336C137.092 46.6939 137.337 47.0016 137.49 47.4582C137.643 47.9149 137.637 48.3148 137.468 48.6565C137.3 48.9982 136.986 49.2524 136.525 49.4192L135.967 49.62C135.505 49.7868 135.105 49.79 134.766 49.6313C134.428 49.4726 134.181 49.165 134.028 48.7067V48.7083ZM134.658 48.4816C134.739 48.7213 134.873 48.88 135.063 48.9593C135.252 49.0387 135.476 49.0306 135.737 48.935L136.295 48.7343C136.556 48.6403 136.737 48.5011 136.836 48.3181C136.934 48.1351 136.943 47.9246 136.862 47.6849C136.782 47.4469 136.648 47.2882 136.462 47.2073C136.275 47.1263 136.051 47.1344 135.789 47.2283L135.231 47.4291C134.97 47.523 134.789 47.6623 134.689 47.8469C134.589 48.0315 134.578 48.242 134.658 48.48V48.4816Z" fill="url(#paint27_linear_12434_2076)"/>
<path d="M139.832 50.0867L135.987 51.4761C135.907 51.5052 135.851 51.5457 135.818 51.5991C135.786 51.6526 135.781 51.7125 135.803 51.7805L135.911 52.1027L135.283 52.3294L135.147 51.9262C135.061 51.6687 135.07 51.4404 135.178 51.2413C135.286 51.0421 135.481 50.8915 135.764 50.7879L139.602 49.4017L139.832 50.0867Z" fill="url(#paint28_linear_12434_2076)"/>
<path d="M135.553 53.0951L138.918 51.879L139.149 52.564L135.784 53.7801L135.553 53.0951ZM139.605 51.6313L140.266 51.3916L140.497 52.0766L139.836 52.3162L139.605 51.6313Z" fill="url(#paint29_linear_12434_2076)"/>
<path d="M136.562 56.2479C136.401 55.7686 136.402 55.3508 136.569 54.9962C136.735 54.6416 137.05 54.3792 137.516 54.2108L138.071 54.01C138.531 53.8432 138.931 53.8465 139.272 54.0198C139.612 54.1914 139.862 54.5185 140.023 54.9978C140.115 55.2715 140.151 55.5338 140.133 55.788C140.114 56.0406 140.039 56.2641 139.911 56.4568L139.317 56.1167C139.392 55.9823 139.437 55.8366 139.452 55.6844C139.466 55.5306 139.448 55.3816 139.398 55.2358C139.309 54.9719 139.169 54.7922 138.978 54.6982C138.786 54.6043 138.561 54.6043 138.302 54.6982L137.747 54.899C137.482 54.9946 137.3 55.1419 137.205 55.3395C137.11 55.537 137.105 55.7686 137.194 56.0325C137.243 56.1783 137.321 56.3062 137.429 56.4147C137.536 56.5248 137.663 56.6058 137.81 56.6608L137.516 57.3215C137.304 57.2519 137.115 57.1239 136.949 56.9361C136.783 56.7483 136.654 56.5199 136.563 56.2479H136.562Z" fill="url(#paint30_linear_12434_2076)"/>
<defs>
<linearGradient id="paint0_linear_12434_2076" x1="0" y1="41.1301" x2="144" y2="41.1301" gradientUnits="userSpaceOnUse">
<stop stop-color="#FFD858"/>
<stop offset="0.471154" stop-color="#FFB953"/>
<stop offset="1" stop-color="#FF954E"/>
</linearGradient>
<linearGradient id="paint1_linear_12434_2076" x1="26.2339" y1="87.1233" x2="26.2339" y2="93.7915" gradientUnits="userSpaceOnUse">
<stop stop-color="#FEFED6"/>
<stop offset="1" stop-color="#FCAC43"/>
</linearGradient>
<linearGradient id="paint2_linear_12434_2076" x1="33.1213" y1="88.5964" x2="33.1213" y2="93.9029" gradientUnits="userSpaceOnUse">
<stop stop-color="#FEFED6"/>
<stop offset="1" stop-color="#FCAC43"/>
</linearGradient>
<linearGradient id="paint3_linear_12434_2076" x1="38.0355" y1="88.6924" x2="38.0355" y2="93.7916" gradientUnits="userSpaceOnUse">
<stop stop-color="#FEFED6"/>
<stop offset="1" stop-color="#FCAC43"/>
</linearGradient>
<linearGradient id="paint4_linear_12434_2076" x1="42.6728" y1="86.6343" x2="42.6728" y2="93.7916" gradientUnits="userSpaceOnUse">
<stop stop-color="#FEFED6"/>
<stop offset="1" stop-color="#FCAC43"/>
</linearGradient>
<linearGradient id="paint5_linear_12434_2076" x1="50.6566" y1="87.1233" x2="50.6566" y2="93.7915" gradientUnits="userSpaceOnUse">
<stop stop-color="#FEFED6"/>
<stop offset="1" stop-color="#FCAC43"/>
</linearGradient>
<linearGradient id="paint6_linear_12434_2076" x1="56.6016" y1="88.59" x2="56.6016" y2="93.9045" gradientUnits="userSpaceOnUse">
<stop stop-color="#FEFED6"/>
<stop offset="1" stop-color="#FCAC43"/>
</linearGradient>
<linearGradient id="paint7_linear_12434_2076" x1="61.1581" y1="88.6924" x2="61.1581" y2="93.7916" gradientUnits="userSpaceOnUse">
<stop stop-color="#FEFED6"/>
<stop offset="1" stop-color="#FCAC43"/>
</linearGradient>
<linearGradient id="paint8_linear_12434_2076" x1="65.46" y1="86.6343" x2="65.46" y2="93.9049" gradientUnits="userSpaceOnUse">
<stop stop-color="#FEFED6"/>
<stop offset="1" stop-color="#FCAC43"/>
</linearGradient>
<linearGradient id="paint9_linear_12434_2076" x1="69.6556" y1="92.0537" x2="69.6556" y2="95.3976" gradientUnits="userSpaceOnUse">
<stop stop-color="#FEFED6"/>
<stop offset="1" stop-color="#FCAC43"/>
</linearGradient>
<linearGradient id="paint10_linear_12434_2076" x1="76.3872" y1="87.1233" x2="76.3872" y2="93.7932" gradientUnits="userSpaceOnUse">
<stop stop-color="#FEFED6"/>
<stop offset="1" stop-color="#FCAC43"/>
</linearGradient>
<linearGradient id="paint11_linear_12434_2076" x1="80.8167" y1="86.6343" x2="80.8167" y2="93.9033" gradientUnits="userSpaceOnUse">
<stop stop-color="#FEFED6"/>
<stop offset="1" stop-color="#FCAC43"/>
</linearGradient>
<linearGradient id="paint12_linear_12434_2076" x1="84.876" y1="88.59" x2="84.876" y2="93.9045" gradientUnits="userSpaceOnUse">
<stop stop-color="#FEFED6"/>
<stop offset="1" stop-color="#FCAC43"/>
</linearGradient>
<linearGradient id="paint13_linear_12434_2076" x1="89.5707" y1="88.7764" x2="89.5707" y2="96" gradientUnits="userSpaceOnUse">
<stop stop-color="#FEFED6"/>
<stop offset="1" stop-color="#FCAC43"/>
</linearGradient>
<linearGradient id="paint14_linear_12434_2076" x1="97.7513" y1="87.1233" x2="97.7513" y2="93.7915" gradientUnits="userSpaceOnUse">
<stop stop-color="#FEFED6"/>
<stop offset="1" stop-color="#FCAC43"/>
</linearGradient>
<linearGradient id="paint15_linear_12434_2076" x1="103.702" y1="88.59" x2="103.702" y2="93.9045" gradientUnits="userSpaceOnUse">
<stop stop-color="#FEFED6"/>
<stop offset="1" stop-color="#FCAC43"/>
</linearGradient>
<linearGradient id="paint16_linear_12434_2076" x1="108.248" y1="88.6924" x2="108.248" y2="93.7916" gradientUnits="userSpaceOnUse">
<stop stop-color="#FEFED6"/>
<stop offset="1" stop-color="#FCAC43"/>
</linearGradient>
<linearGradient id="paint17_linear_12434_2076" x1="112.56" y1="86.6343" x2="112.56" y2="93.9049" gradientUnits="userSpaceOnUse">
<stop stop-color="#FEFED6"/>
<stop offset="1" stop-color="#FCAC43"/>
</linearGradient>
<linearGradient id="paint18_linear_12434_2076" x1="118.114" y1="88.5869" x2="118.114" y2="93.9031" gradientUnits="userSpaceOnUse">
<stop stop-color="#FEFED6"/>
<stop offset="1" stop-color="#FCAC43"/>
</linearGradient>
<linearGradient id="paint19_linear_12434_2076" x1="122.796" y1="88.6924" x2="122.796" y2="93.7916" gradientUnits="userSpaceOnUse">
<stop stop-color="#FEFED6"/>
<stop offset="1" stop-color="#FCAC43"/>
</linearGradient>
<linearGradient id="paint20_linear_12434_2076" x1="125.479" y1="92.0537" x2="125.479" y2="93.8851" gradientUnits="userSpaceOnUse">
<stop stop-color="#FEFED6"/>
<stop offset="1" stop-color="#FCAC43"/>
</linearGradient>
<linearGradient id="paint21_linear_12434_2076" x1="128.867" y1="21.0671" x2="128.867" y2="27.2026" gradientUnits="userSpaceOnUse">
<stop stop-color="#FEFED6"/>
<stop offset="1" stop-color="#FCAC43"/>
</linearGradient>
<linearGradient id="paint22_linear_12434_2076" x1="129.5" y1="27.7924" x2="129.5" y2="31.125" gradientUnits="userSpaceOnUse">
<stop stop-color="#FEFED6"/>
<stop offset="1" stop-color="#FCAC43"/>
</linearGradient>
<linearGradient id="paint23_linear_12434_2076" x1="130.641" y1="31.2638" x2="130.641" y2="33.7057" gradientUnits="userSpaceOnUse">
<stop stop-color="#FEFED6"/>
<stop offset="1" stop-color="#FCAC43"/>
</linearGradient>
<linearGradient id="paint24_linear_12434_2076" x1="132.084" y1="33.7152" x2="132.084" y2="38.484" gradientUnits="userSpaceOnUse">
<stop stop-color="#FEFED6"/>
<stop offset="1" stop-color="#FCAC43"/>
</linearGradient>
<linearGradient id="paint25_linear_12434_2076" x1="133.457" y1="38.6527" x2="133.457" y2="42.8402" gradientUnits="userSpaceOnUse">
<stop stop-color="#FEFED6"/>
<stop offset="1" stop-color="#FCAC43"/>
</linearGradient>
<linearGradient id="paint26_linear_12434_2076" x1="134.806" y1="41.8088" x2="134.806" y2="46.3121" gradientUnits="userSpaceOnUse">
<stop stop-color="#FEFED6"/>
<stop offset="1" stop-color="#FCAC43"/>
</linearGradient>
<linearGradient id="paint27_linear_12434_2076" x1="135.76" y1="46.4158" x2="135.76" y2="49.7478" gradientUnits="userSpaceOnUse">
<stop stop-color="#FEFED6"/>
<stop offset="1" stop-color="#FCAC43"/>
</linearGradient>
<linearGradient id="paint28_linear_12434_2076" x1="137.46" y1="49.4017" x2="137.46" y2="52.3294" gradientUnits="userSpaceOnUse">
<stop stop-color="#FEFED6"/>
<stop offset="1" stop-color="#FCAC43"/>
</linearGradient>
<linearGradient id="paint29_linear_12434_2076" x1="138.025" y1="51.3916" x2="138.025" y2="53.7801" gradientUnits="userSpaceOnUse">
<stop stop-color="#FEFED6"/>
<stop offset="1" stop-color="#FCAC43"/>
</linearGradient>
<linearGradient id="paint30_linear_12434_2076" x1="138.29" y1="53.8873" x2="138.29" y2="57.3215" gradientUnits="userSpaceOnUse">
<stop stop-color="#FEFED6"/>
<stop offset="1" stop-color="#FCAC43"/>
</linearGradient>
</defs>
</svg>
