<svg width="168" height="147" viewBox="0 0 168 147" fill="none" xmlns="http://www.w3.org/2000/svg">
<path d="M28.5313 38.1699C35.1568 41.5986 41.9294 43.6835 49.1457 44.401C47.4338 43.2955 45.701 42.225 44.0172 41.0798C40.4744 38.67 37.0087 36.1645 34.288 32.7848C30.9507 28.6385 29.4001 23.8494 29.0497 18.5906C28.6901 13.2079 29.3463 7.95604 30.9321 2.81639C31.1983 1.94927 31.677 1.14758 32.0577 0.315518C32.2539 0.210341 32.4477 0.102827 32.6439 -0.00234985C32.9125 0.460429 33.1297 0.962941 33.4589 1.37897C40.0774 9.77911 48.4217 15.9378 58.1742 20.1916C61.7287 21.7412 65.4466 22.9122 69.0267 24.4081C78.0413 28.1757 85.2249 34.1638 90.4491 42.4588C91.089 43.4731 91.7546 44.4711 92.5907 45.7543C93.8331 43.5643 95.0101 41.5659 96.1124 39.5278C98.2913 35.4984 100.23 31.324 102.635 27.4372C105.183 23.3259 108.595 19.9439 113.151 17.9829C121.131 14.5495 131.423 17.443 135.01 26.4181C136.071 29.0686 137.941 30.5036 140.401 31.5017C141.872 32.1 143.329 32.7357 144.784 33.3785C145.134 33.5327 145.555 33.708 145.749 34.0025C146.001 34.3858 146.185 34.9117 146.139 35.3488C146.118 35.5498 145.485 35.8186 145.12 35.8303C140.382 35.9939 136.19 37.6159 132.397 40.423C129.784 42.3559 128.032 44.8638 127.311 48.0074C126.304 52.3945 125.543 56.84 124.497 61.2153C120.351 78.5321 109.513 89.19 92.1913 93.0419C88.4034 93.8856 84.4075 93.9137 80.4981 94.0609C76.0656 94.2292 71.6494 94.283 67.3172 95.4352C64.1481 96.279 61.3737 97.8847 58.6366 99.6002C55.9276 101.299 53.1438 102.844 50.0121 103.62C44.8462 104.901 40.1171 103.653 35.82 100.792C29.5472 96.6179 25.138 90.8892 22.457 83.8447C22.1931 83.1529 22.1254 82.3886 21.9689 81.6617C25.514 81.8838 28.8372 82.232 32.1651 82.2741C42.4431 82.405 52.3194 80.9068 60.8903 74.6008C61.8244 73.9137 62.7049 73.1541 63.8539 72.2332C62.1911 71.74 60.7758 71.3333 59.3676 70.9009C53.8118 69.1971 48.4007 67.1216 43.5945 63.798C37.5272 59.6049 33.3959 53.8225 30.7009 47.0188C29.8485 44.8685 29.3487 42.5733 28.7438 40.3295C28.5733 39.7125 28.6084 39.0323 28.5313 38.1699Z" fill="white"/>
<path d="M0 146.18C0 137.499 0 128.758 0 119.869C0.817382 119.869 1.58105 119.857 2.34472 119.871C6.07431 119.934 9.81092 119.892 13.5335 120.112C16.1935 120.269 18.5639 121.295 19.8367 123.863C21.3804 126.974 20.4999 131.202 16.5064 132.38C16.3757 132.42 16.2519 132.486 15.995 132.593C16.2449 132.724 16.364 132.827 16.4994 132.853C18.9773 133.336 20.7498 134.664 21.1842 137.233C21.6466 139.977 21.2403 142.629 18.7694 144.31C17.4686 145.196 15.8409 146.021 14.3229 146.093C9.5984 146.322 4.85291 146.18 0 146.18ZM5.47646 142.389C8.0337 142.274 10.4788 142.276 12.8959 142.022C14.8927 141.811 15.9226 140.362 15.8409 138.347C15.7615 136.415 14.6335 135.215 12.6577 134.97C12.2327 134.916 11.8077 134.842 11.3826 134.839C9.42091 134.825 7.46153 134.832 5.47646 134.832C5.47646 137.361 5.47646 139.726 5.47646 142.389ZM5.49981 130.618C7.69974 130.618 9.79223 130.662 11.8824 130.604C13.7554 130.553 14.8063 129.555 14.9955 127.811C15.1753 126.152 14.2598 124.656 12.4826 124.476C10.1986 124.244 7.87489 124.42 5.49981 124.42C5.49981 126.388 5.49981 128.426 5.49981 130.618Z" fill="white"/>
<path d="M89.2838 126.402C87.5066 126.509 85.8485 126.607 84.1787 126.708C82.3454 123.672 79.9143 122.667 76.988 123.73C75.8811 124.132 75.1151 124.815 74.9539 126.035C74.7811 127.348 75.3276 128.365 76.4579 128.938C77.343 129.386 78.3496 129.599 79.2977 129.926C81.7826 130.784 84.3818 131.41 86.7242 132.56C91.1638 134.739 90.9232 140.243 88.4804 143.162C86.883 145.072 84.8396 146.177 82.3921 146.504C78.9638 146.963 75.6335 146.687 72.5812 144.887C70.1267 143.44 68.917 141.197 68.541 138.354C70.3602 138.354 72.1024 138.354 73.8493 138.354C75.442 142.127 78.9287 143.583 82.5929 141.975C83.756 141.465 84.6177 140.699 84.6878 139.292C84.7602 137.838 84.0409 136.861 82.7751 136.4C80.6312 135.62 78.429 134.998 76.2594 134.285C75.449 134.019 74.641 133.729 73.8703 133.369C70.8904 131.976 69.3911 129.669 69.5732 126.794C69.7857 123.433 71.4088 121.014 74.5989 119.899C77.6863 118.82 80.8648 118.785 83.9685 119.925C86.897 120.998 88.6906 123.09 89.2838 126.402Z" fill="white"/>
<path d="M59.809 146.416C58.1182 146.416 56.5278 146.453 54.9421 146.383C54.6408 146.369 54.2134 145.995 54.0943 145.689C53.5035 144.17 53.0364 142.601 52.4269 141.091C52.2844 140.741 51.7519 140.329 51.3923 140.322C48.396 140.259 45.3997 140.259 42.4034 140.322C42.0531 140.329 41.537 140.766 41.3992 141.124C40.8504 142.533 40.4043 143.985 39.9606 145.432C39.7528 146.109 39.4282 146.467 38.6458 146.434C37.2866 146.374 35.9251 146.418 34.3767 146.418C34.727 145.511 35.0423 144.705 35.3483 143.896C38.2441 136.228 41.154 128.566 44.0125 120.883C44.3278 120.037 44.7295 119.738 45.6122 119.804C47.0415 119.911 48.8094 119.413 49.8159 120.091C50.7617 120.729 50.9112 122.557 51.4016 123.863C54.0873 131.025 56.7707 138.186 59.4517 145.35C59.5661 145.663 59.6665 145.988 59.809 146.416ZM50.673 135.907C49.3932 132.469 48.1578 129.153 46.8033 125.516C45.5352 129.155 44.3745 132.493 43.1858 135.907C45.7197 135.907 48.1064 135.907 50.673 135.907Z" fill="white"/>
<path d="M111.437 137.831C106.949 137.831 102.607 137.831 98.2703 137.831C98.2049 142.391 102.005 143.473 104.868 142.454C105.118 142.365 105.356 142.204 105.559 142.029C106.063 141.587 106.498 140.797 107.042 140.72C108.401 140.528 109.805 140.657 111.475 140.657C110.389 143.41 108.976 145.371 106.498 146.21C103.476 147.231 100.44 147.042 97.5767 145.563C94.3282 143.882 92.3058 139.481 92.9153 135.487C93.0834 134.379 93.2936 133.255 93.6696 132.205C95.3791 127.432 99.807 126.016 103.642 126.491C108.525 127.096 111.274 130.284 111.437 135.22C111.461 136.027 111.437 136.838 111.437 137.831ZM106.278 134.187C106.271 131.471 104.742 129.938 102.282 130.06C100.055 130.169 98.2656 132.072 98.4618 134.187C101.04 134.187 103.623 134.187 106.278 134.187Z" fill="white"/>
<path d="M167.942 137.81C163.565 137.81 159.263 137.81 154.978 137.81C154.709 139.878 155.7 141.72 157.416 142.473C159.315 143.305 161.524 142.774 162.801 141.225C163.014 140.965 163.388 140.701 163.698 140.687C165.008 140.629 166.323 140.661 167.844 140.661C167.262 143.001 165.992 144.478 164.329 145.558C158.395 149.412 149.957 145.072 149.576 138.032C149.452 135.746 149.677 133.547 150.648 131.436C152.402 127.629 156.255 126.184 159.88 126.491C166.125 127.019 168.402 131.777 167.942 137.81ZM162.804 134.168C162.869 131.724 161.456 130.125 159.273 130.067C156.865 130.001 155.116 131.651 154.997 134.168C157.577 134.168 160.155 134.168 162.804 134.168Z" fill="white"/>
<path d="M129.151 126.86C130.882 126.86 132.467 126.813 134.044 126.904C134.312 126.921 134.655 127.493 134.779 127.872C136.155 132.072 137.495 136.286 138.918 140.72C139.095 140.304 139.219 140.065 139.298 139.815C140.601 135.79 141.916 131.77 143.18 127.734C143.392 127.056 143.686 126.808 144.396 126.841C145.676 126.9 146.961 126.857 148.441 126.857C148.133 127.72 147.867 128.498 147.579 129.267C145.58 134.615 143.563 139.955 141.585 145.312C141.288 146.117 140.893 146.57 139.987 146.413C139.723 146.369 139.443 146.413 139.172 146.416C136.342 146.425 136.351 146.423 135.389 143.824C133.471 138.649 131.54 133.479 129.618 128.304C129.459 127.879 129.338 127.439 129.151 126.86Z" fill="white"/>
<path d="M25.563 119.918C27.3239 119.918 29.0171 119.918 30.7896 119.918C30.7896 128.711 30.7896 137.483 30.7896 146.334C29.0731 146.334 27.3496 146.334 25.563 146.334C25.563 137.518 25.563 128.748 25.563 119.918Z" fill="white"/>
<path d="M126.86 126.551C126.86 128.192 126.86 129.774 126.86 131.387C125.636 131.555 124.441 131.649 123.28 131.899C121.372 132.313 120.538 133.388 120.524 135.36C120.503 138.707 120.515 142.054 120.515 145.401C120.515 145.747 120.515 146.093 120.515 146.533C118.763 146.533 117.075 146.533 115.288 146.533C115.288 140.012 115.288 133.502 115.288 126.925C116.664 126.925 118.046 126.925 119.52 126.925C119.735 127.933 119.957 128.968 120.176 130.001C120.249 130.088 120.321 130.174 120.396 130.261C121.624 127.346 123.817 126.245 126.86 126.551Z" fill="white"/>
</svg>
