<svg width="36" height="36" viewBox="0 0 36 36" fill="none" xmlns="http://www.w3.org/2000/svg">
<path d="M9.98326 13.5606C11.7147 13.5589 13.3748 12.8705 14.5993 11.6463C15.8237 10.422 16.5125 8.76207 16.5145 7.0306C16.1545 -1.63315 3.81014 -1.63127 3.45264 7.03123C3.45462 8.76248 4.14324 10.4223 5.36742 11.6464C6.5916 12.8706 8.25138 13.5592 9.98264 13.5612L9.98326 13.5606ZM9.98326 1.74998C11.3835 1.7513 12.7261 2.30814 13.7162 3.29828C14.7063 4.28842 15.2632 5.63096 15.2645 7.03123C14.9983 14.0256 4.96764 14.0244 4.70326 7.03123C4.70459 5.63117 5.26125 4.28883 6.25112 3.29872C7.24099 2.30862 8.58321 1.75163 9.98326 1.74998Z" fill="#121212"/>
<path d="M9.98326 9.27251C9.19139 9.27251 8.63951 8.84627 8.63951 8.46377C8.63951 8.29801 8.57366 8.13903 8.45645 8.02182C8.33924 7.90461 8.18027 7.83876 8.01451 7.83876C7.84875 7.83876 7.68978 7.90461 7.57257 8.02182C7.45536 8.13903 7.38951 8.29801 7.38951 8.46377C7.43209 8.97415 7.65251 9.45339 8.01232 9.81788C8.37212 10.1824 8.84847 10.409 9.35826 10.4581V10.9675C9.35826 11.1333 9.42411 11.2922 9.54132 11.4095C9.65853 11.5267 9.8175 11.5925 9.98326 11.5925C10.149 11.5925 10.308 11.5267 10.4252 11.4095C10.5424 11.2922 10.6083 11.1333 10.6083 10.9675V10.4581C11.1179 10.4089 11.5941 10.1823 11.9539 9.81798C12.3137 9.45365 12.5342 8.97462 12.577 8.46439C12.577 7.30939 11.4376 6.40564 9.98326 6.40564C9.19139 6.40564 8.63951 5.98001 8.63951 5.59689C8.70576 4.54064 11.2614 4.53939 11.327 5.59689C11.327 5.76265 11.3929 5.92162 11.5101 6.03883C11.6273 6.15604 11.7863 6.22189 11.952 6.22189C12.1178 6.22189 12.2767 6.15604 12.394 6.03883C12.5112 5.92162 12.577 5.76265 12.577 5.59689C12.5342 5.08666 12.3137 4.60763 11.9539 4.2433C11.5941 3.87896 11.1179 3.65242 10.6083 3.60314V3.09314C10.6083 2.92738 10.5424 2.76841 10.4252 2.6512C10.308 2.53399 10.149 2.46814 9.98326 2.46814C9.8175 2.46814 9.65853 2.53399 9.54132 2.6512C9.42411 2.76841 9.35826 2.92738 9.35826 3.09314V3.60251C6.38451 4.20876 6.97451 7.66002 9.98326 7.65564C11.747 7.70189 11.7458 9.22626 9.98326 9.27251ZM4.48264 21.3238L3.80326 21.6569C3.65441 21.7298 3.54063 21.8589 3.48694 22.0157C3.43326 22.1726 3.44408 22.3443 3.51701 22.4931C3.58995 22.642 3.71903 22.7558 3.87585 22.8095C4.03268 22.8631 4.20441 22.8523 4.35326 22.7794C12.7077 18.8113 20.156 13.166 26.2345 6.19502V7.03064C26.2345 7.1964 26.3004 7.35537 26.4176 7.47258C26.5348 7.58979 26.6938 7.65564 26.8595 7.65564C27.0253 7.65564 27.1842 7.58979 27.3015 7.47258C27.4187 7.35537 27.4845 7.1964 27.4845 7.03064V4.50001C27.4776 4.33647 27.4095 4.18148 27.2938 4.06573C27.1781 3.94998 27.0231 3.88192 26.8595 3.87501H24.3289C24.1631 3.87501 24.0042 3.94086 23.8869 4.05807C23.7697 4.17528 23.7039 4.33425 23.7039 4.50001C23.7039 4.66577 23.7697 4.82475 23.8869 4.94196C24.0042 5.05917 24.1631 5.12501 24.3289 5.12501H25.5058C19.6678 11.8934 12.5154 17.4049 4.48264 21.325V21.3238ZM34.4539 34.25H32.5476V12.0931C32.5476 11.9274 32.4818 11.7684 32.3646 11.6512C32.2474 11.534 32.0884 11.4681 31.9226 11.4681H26.8601C26.6944 11.4681 26.5354 11.534 26.4182 11.6512C26.301 11.7684 26.2351 11.9274 26.2351 12.0931V34.25H24.9533V17.1563C24.9533 16.9905 24.8874 16.8315 24.7702 16.7143C24.653 16.5971 24.494 16.5313 24.3283 16.5313H19.2658C19.1 16.5313 18.941 16.5971 18.8238 16.7143C18.7066 16.8315 18.6408 16.9905 18.6408 17.1563V34.25H17.3595V22.2181C17.3595 22.0524 17.2937 21.8934 17.1765 21.7762C17.0592 21.659 16.9003 21.5931 16.7345 21.5931H11.672C11.5063 21.5931 11.3473 21.659 11.2301 21.7762C11.1129 21.8934 11.047 22.0524 11.047 22.2181V34.25H9.76576V27.2813C9.76576 27.1155 9.69991 26.9565 9.5827 26.8393C9.46549 26.7221 9.30652 26.6563 9.14076 26.6563H4.07826C3.9125 26.6563 3.75353 26.7221 3.63632 26.8393C3.51911 26.9565 3.45326 27.1155 3.45326 27.2813V34.25H1.54639C1.38063 34.25 1.22166 34.3159 1.10445 34.4331C0.987235 34.5503 0.921387 34.7093 0.921387 34.875C0.921387 35.0408 0.987235 35.1997 1.10445 35.317C1.22166 35.4342 1.38063 35.5 1.54639 35.5H34.4539C34.6196 35.5 34.7786 35.4342 34.8958 35.317C35.013 35.1997 35.0789 35.0408 35.0789 34.875C35.0789 34.7093 35.013 34.5503 34.8958 34.4331C34.7786 34.3159 34.6196 34.25 34.4539 34.25ZM4.70326 34.25V27.9063H8.51576V34.25H4.70326ZM12.297 34.25V22.8431H16.1095V34.25H12.297ZM19.8908 34.25V17.7813H23.7033V34.25H19.8908ZM27.4858 34.25V12.7181H31.2983V34.25H27.4858Z" fill="#121212"/>
</svg>
