<svg width="40" height="41" viewBox="0 0 40 41" fill="none" xmlns="http://www.w3.org/2000/svg">
<path d="M13.6311 6.28791C13.7097 6.42412 13.8368 6.52566 13.987 6.57229C14.1372 6.61892 14.2995 6.6072 14.4415 6.53947C15.8956 5.84557 17.4577 5.43104 19.0843 5.30736C19.2415 5.29543 19.3883 5.22459 19.4954 5.10903C19.6025 4.99348 19.662 4.84173 19.662 4.68416V1.7501C19.662 1.66469 19.6444 1.58018 19.6105 1.50181C19.5765 1.42343 19.5269 1.35285 19.4646 1.29441C19.4023 1.23597 19.3287 1.19091 19.2483 1.16202C19.1679 1.13313 19.0825 1.12102 18.9972 1.12643C16.6996 1.27315 14.4912 1.86455 12.4335 2.88424C12.357 2.92219 12.289 2.97541 12.2339 3.04062C12.1787 3.10583 12.1375 3.18166 12.1128 3.26341C12.0881 3.34516 12.0804 3.43111 12.0901 3.51596C12.0999 3.60081 12.127 3.68275 12.1697 3.75674L13.6311 6.28791ZM18.412 2.42994V4.11627C17.0315 4.27619 15.6966 4.63033 14.4305 5.1726L13.5921 3.72033C15.1243 3.03822 16.7403 2.60557 18.412 2.42994ZM4.57012 26.1099C4.60799 26.1866 4.66117 26.2546 4.72637 26.3099C4.79158 26.3652 4.86743 26.4065 4.94923 26.4313C5.03103 26.4561 5.11705 26.4638 5.20197 26.454C5.28689 26.4443 5.3689 26.4172 5.44294 26.3745L7.98606 24.9063C8.12226 24.8276 8.22381 24.7006 8.27045 24.5504C8.3171 24.4002 8.3054 24.2379 8.2377 24.096C7.542 22.6371 7.12544 21.0764 6.99934 19.4573C6.98713 19.3004 6.91618 19.1539 6.80067 19.047C6.68516 18.9402 6.53358 18.8808 6.37622 18.8808H3.4413C3.35586 18.8808 3.27134 18.8984 3.19295 18.9323C3.11456 18.9663 3.04396 19.016 2.98552 19.0783C2.92707 19.1406 2.88202 19.2143 2.85314 19.2947C2.82427 19.3751 2.81218 19.4605 2.81762 19.5458C2.96512 21.8456 3.55481 24.0541 4.57012 26.1099ZM5.8095 20.1307C5.97003 21.5002 6.3275 22.8394 6.87083 24.1067L5.40747 24.9516C4.72833 23.4204 4.29708 21.804 4.1213 20.1307H5.8095ZM3.44138 17.9733H6.38778C6.5442 17.9733 6.69492 17.9147 6.8102 17.8089C6.92548 17.7032 6.99693 17.5581 7.01044 17.4023C7.15114 15.7793 7.57098 14.2201 8.25833 12.768C8.32546 12.6261 8.33677 12.4642 8.29 12.3144C8.24324 12.1646 8.14182 12.0378 8.00591 11.9593L5.44755 10.4823C5.37356 10.4396 5.29159 10.4125 5.20672 10.4027C5.12184 10.3928 5.03586 10.4005 4.95407 10.4253C4.87229 10.45 4.79645 10.4913 4.73123 10.5464C4.66601 10.6016 4.6128 10.6696 4.57489 10.7462C3.55638 12.8031 2.9652 15.011 2.81762 17.3082C2.81213 17.3935 2.82419 17.479 2.85306 17.5594C2.88192 17.6399 2.92697 17.7135 2.98543 17.7759C3.04389 17.8382 3.11452 17.8879 3.19294 17.9219C3.27136 17.9558 3.35592 17.9733 3.44138 17.9733ZM5.41145 11.9048L6.89192 12.7596C6.35458 14.0206 5.99708 15.3493 5.82552 16.7233H4.12138C4.29755 15.0521 4.73005 13.4364 5.41145 11.9048ZM38.9047 20.058C38.7425 19.7238 38.4108 19.5162 38.0389 19.5161H37.4233C37.4458 19.1535 37.4571 18.7893 37.4571 18.4271C37.4571 13.9904 35.7824 9.76947 32.7415 6.54182C29.714 3.3283 25.6273 1.40494 21.234 1.12588C21.1488 1.12049 21.0634 1.13262 20.983 1.16152C20.9027 1.19042 20.8291 1.23549 20.7668 1.29392C20.7045 1.35236 20.6549 1.42294 20.621 1.50131C20.587 1.57967 20.5695 1.66416 20.5695 1.74955V4.6844C20.5695 4.84184 20.6289 4.99349 20.7359 5.10901C20.8428 5.22454 20.9895 5.29544 21.1465 5.30752C27.9494 5.83236 33.2785 11.5951 33.2785 18.427C33.2785 18.7895 33.2636 19.1539 33.2338 19.516H32.8341C32.4623 19.516 32.1305 19.7235 31.9683 20.0578C31.8061 20.3919 31.8482 20.781 32.0783 21.073L34.6808 24.3787C34.7706 24.4933 34.8854 24.586 35.0164 24.6495C35.1474 24.7131 35.2912 24.7459 35.4368 24.7454C35.7335 24.7454 36.0089 24.6117 36.1924 24.3785L38.7948 21.073C39.0247 20.7811 39.0669 20.3921 38.9047 20.058ZM35.4365 23.3181L33.4273 20.7662H33.7975C33.9499 20.7662 34.097 20.7105 34.2113 20.6096C34.3255 20.5087 34.3989 20.3695 34.4177 20.2183C34.4913 19.6241 34.5283 19.0259 34.5284 18.4271C34.5284 14.7742 33.1592 11.2902 30.6729 8.61682C28.3322 6.09994 25.2065 4.51596 21.8194 4.1176V2.4294C29.9396 3.28307 36.2072 10.1848 36.2072 18.4271C36.2072 18.9775 36.179 19.5329 36.1235 20.0778C36.1146 20.1647 36.1241 20.2526 36.1513 20.3357C36.1786 20.4187 36.2229 20.4952 36.2815 20.5601C36.3401 20.6249 36.4116 20.6768 36.4915 20.7123C36.5714 20.7478 36.6579 20.7662 36.7453 20.7662H37.4458L35.4365 23.3181ZM5.90255 9.69721L8.45208 11.1692C8.5887 11.2481 8.75014 11.2725 8.90396 11.2373C9.05778 11.2021 9.19259 11.11 9.2813 10.9795C10.1958 9.63518 11.3329 8.48838 12.6607 7.57088C12.7898 7.48162 12.8807 7.34702 12.9151 7.19384C12.9496 7.04066 12.9251 6.88013 12.8466 6.74416L11.3847 4.21205C11.3419 4.13799 11.2844 4.07349 11.2156 4.02255C11.1469 3.97161 11.0685 3.93531 10.9852 3.91589C10.9019 3.89648 10.8155 3.89437 10.7314 3.90968C10.6472 3.925 10.5671 3.95742 10.496 4.00494C8.58708 5.28143 6.97192 6.8976 5.6952 8.80869C5.64772 8.87982 5.61533 8.95993 5.60005 9.04407C5.58476 9.12822 5.5869 9.2146 5.60633 9.29788C5.62577 9.38116 5.66209 9.45957 5.71303 9.52826C5.76398 9.59695 5.82849 9.65445 5.90255 9.69721ZM10.6429 5.42697L11.4818 6.88018C10.3801 7.70869 9.4088 8.68838 8.58442 9.80221L7.11716 8.9551C8.10146 7.60261 9.29104 6.41221 10.6429 5.42697ZM28.8276 26.6028L22.8018 30.1124C22.5726 30.2459 22.3403 30.3489 22.101 30.4219C22.1765 30.2688 22.2366 30.1086 22.2804 29.9435C22.6008 28.7474 21.8914 27.4991 20.6653 27.1017C20.6385 27.093 20.6112 27.0861 20.5835 27.0811C18.8591 26.7701 17.1538 26.1535 15.7835 25.6581C15.3057 25.4854 14.8543 25.3222 14.4697 25.1975C12.8933 24.686 11.4765 25.3143 10.2986 25.9964L5.89442 28.5464L5.51669 27.8789C5.31825 27.5282 4.99419 27.2756 4.60427 27.1674C4.21442 27.0596 3.80653 27.1092 3.45583 27.3076L1.76512 28.2645C1.0395 28.6752 0.78325 29.5996 1.19387 30.3253L6.16442 39.1079C6.36286 39.4586 6.68692 39.7113 7.07684 39.8193C7.21169 39.8567 7.34864 39.8752 7.48466 39.8752C7.74192 39.8752 7.99591 39.8089 8.22528 39.6792L9.91598 38.7223C10.2666 38.5238 10.5193 38.1998 10.6274 37.8099C10.7354 37.4199 10.6857 37.0121 10.4872 36.6614L10.0189 35.8338L10.9308 35.3072L18.6124 37.3655C19.0461 37.4817 19.4778 37.5396 19.9022 37.5396C20.761 37.5396 21.5906 37.3032 22.349 36.8362L33.2843 30.1027C34.321 29.4645 34.6515 27.8589 33.9779 26.7342C33.6518 26.1896 32.3165 24.571 28.8276 26.6028ZM9.42286 37.476C9.41192 37.5155 9.38145 37.5885 9.30036 37.6345L7.60966 38.5914C7.52864 38.6374 7.4502 38.6258 7.41075 38.6148C7.3713 38.6039 7.29825 38.5734 7.25231 38.4923L2.28184 29.7097C2.21184 29.586 2.25716 29.4224 2.38091 29.3524L4.07169 28.3955C4.11021 28.3736 4.15378 28.3621 4.19809 28.3622C4.22778 28.3622 4.25302 28.3671 4.27059 28.3721C4.31005 28.383 4.38309 28.4135 4.42895 28.4945L9.3995 37.2771C9.44528 37.3582 9.4338 37.4365 9.42286 37.476ZM32.629 29.0384L21.6938 35.7718C20.8486 36.2921 19.9207 36.4222 18.936 36.1581L11.0043 34.0328C10.8442 33.99 10.6736 34.0124 10.53 34.0953L9.40317 34.7458L6.51013 29.6341L10.9248 27.078C11.9116 26.5067 12.9773 26.0273 14.084 26.3864C14.4489 26.5047 14.8704 26.6571 15.3584 26.8335C16.7611 27.3407 18.5038 27.9707 20.3157 28.3028C20.8961 28.5089 21.2206 29.0688 21.0729 29.6199C20.8783 30.3458 20.2679 30.4361 19.7806 30.3806C18.8984 30.199 18.0583 29.9592 17.1696 29.7055C16.746 29.5846 16.308 29.4595 15.8575 29.3387C15.6983 29.2986 15.5298 29.3228 15.3882 29.4059C15.2467 29.4891 15.1436 29.6245 15.1011 29.7831C15.0586 29.9416 15.0802 30.1105 15.1612 30.2533C15.2422 30.3961 15.3761 30.5012 15.534 30.5461C15.9746 30.6642 16.4076 30.7878 16.8263 30.9074C17.7477 31.1706 19.5776 31.6149 19.5818 31.6156L20.3313 31.7375C21.4734 31.9201 22.4873 31.742 23.4308 31.1925L29.4566 27.6828C31.1429 26.7007 32.4322 26.586 32.9055 27.3764C33.229 27.9163 33.0894 28.7549 32.629 29.0384ZM4.51763 30.0131C4.5303 30.092 4.52715 30.1728 4.50837 30.2505C4.48959 30.3283 4.45554 30.4015 4.40821 30.466C4.36087 30.5304 4.3012 30.5849 4.23265 30.6261C4.1641 30.6673 4.08804 30.6945 4.00889 30.7061C3.92975 30.7176 3.84909 30.7134 3.77162 30.6935C3.69414 30.6736 3.62138 30.6385 3.55757 30.5903C3.49376 30.5421 3.44017 30.4816 3.39992 30.4125C3.35967 30.3434 3.33355 30.267 3.32309 30.1877C3.30235 30.0304 3.34435 29.8713 3.44001 29.7447C3.53566 29.6182 3.6773 29.5344 3.83427 29.5114C3.99124 29.4885 4.15094 29.5282 4.27882 29.6221C4.4067 29.716 4.49249 29.8564 4.51763 30.0131ZM25.4307 12.5705C25.4307 10.0774 23.4023 8.04901 20.9092 8.04901C18.4161 8.04901 16.3877 10.0774 16.3877 12.5705C16.3877 14.0911 17.143 15.4378 18.2974 16.2578C15.2626 17.2536 12.9824 19.9429 12.6255 23.2778C12.6162 23.3649 12.6252 23.4531 12.6522 23.5366C12.6792 23.62 12.7234 23.6969 12.782 23.7621C12.8406 23.8273 12.9123 23.8795 12.9924 23.9151C13.0725 23.9508 13.1592 23.9693 13.2469 23.9692H28.5712C28.6589 23.9693 28.7456 23.9508 28.8257 23.9151C28.9059 23.8794 28.9775 23.8273 29.0362 23.7621C29.0948 23.6968 29.139 23.62 29.166 23.5365C29.1929 23.4531 29.202 23.3649 29.1926 23.2777C28.8357 19.9429 26.5555 17.2537 23.5208 16.2578C24.6753 15.4378 25.4307 14.0911 25.4307 12.5705ZM27.8415 22.7192H13.9767C14.6503 19.4668 17.516 17.0927 20.9075 17.0919L20.9092 17.092H20.9107C24.3022 17.0928 27.1679 19.4668 27.8415 22.7192ZM20.9091 15.8419H20.9071C19.1042 15.8407 17.6377 14.3737 17.6377 12.5705C17.6377 10.7666 19.1053 9.29901 20.9092 9.29901C22.7131 9.29901 24.1807 10.7666 24.1807 12.5705C24.1807 14.3737 22.7142 15.8408 20.9112 15.8419H20.9091Z" fill="#121212"/>
</svg>
