<svg width="50" height="32" viewBox="0 0 50 32" fill="none" xmlns="http://www.w3.org/2000/svg">
<path d="M43.243 14.0956C44.7072 13.0667 45.6767 11.3552 45.6767 9.42603C45.6767 6.27011 43.1243 3.71768 39.9683 3.71768C36.8124 3.71768 34.26 6.27011 34.26 9.42603C34.26 11.3552 35.2196 13.0667 36.6937 14.0956C35.4373 14.5309 34.2897 15.2036 33.3201 16.0742C31.9846 14.9365 30.4116 14.0659 28.6901 13.5515C30.7776 12.2852 32.1824 9.98005 32.1824 7.35836C32.1824 3.36153 28.9474 0.126465 24.9505 0.126465C20.9537 0.126465 17.7186 3.37142 17.7186 7.35836C17.7186 9.98005 19.1136 12.2852 21.2109 13.5515C19.5093 14.0659 17.9561 14.9266 16.6304 16.0445C15.6609 15.1937 14.533 14.5309 13.2964 14.1055C14.7606 13.0766 15.7301 11.3651 15.7301 9.43592C15.7301 6.28001 13.1777 3.72757 10.0218 3.72757C6.86585 3.72757 4.31342 6.28001 4.31342 9.43592C4.31342 11.3651 5.27305 13.0766 6.74713 14.1055C2.81955 15.4609 0 19.1906 0 23.5732V24.2262C0 24.246 0.0197863 24.2658 0.0395726 24.2658H12.1389C12.0696 24.8099 12.0301 25.3738 12.0301 25.9377V26.6104C12.0301 29.519 14.3846 31.8736 17.2932 31.8736H32.6276C35.5362 31.8736 37.8908 29.519 37.8908 26.6104V25.9377C37.8908 25.3738 37.8512 24.8099 37.782 24.2658H49.9604C49.9802 24.2658 50 24.246 50 24.2262V23.5732C49.9802 19.1807 47.1706 15.451 43.243 14.0956ZM35.8429 9.41614C35.8429 7.14071 37.6929 5.29069 39.9683 5.29069C42.2438 5.29069 44.0938 7.14071 44.0938 9.41614C44.0938 11.6619 42.2833 13.4921 40.0475 13.5416H39.8892C37.6435 13.502 35.8429 11.6718 35.8429 9.41614ZM19.2818 7.35836C19.2818 4.24202 21.8144 1.70937 24.9307 1.70937C28.0471 1.70937 30.5797 4.24202 30.5797 7.35836C30.5797 10.3659 28.2153 12.8293 25.2572 12.9975H24.6043C21.6462 12.8293 19.2818 10.3659 19.2818 7.35836ZM5.86664 9.41614C5.86664 7.14071 7.71666 5.29069 9.99209 5.29069C12.2675 5.29069 14.1175 7.14071 14.1175 9.41614C14.1175 11.6619 12.3071 13.4921 10.0712 13.5416H9.91294C7.67709 13.502 5.86664 11.6718 5.86664 9.41614ZM12.4159 22.673H1.60269C2.04788 18.4585 5.60942 15.1542 9.93273 15.1245H10.0514C12.1092 15.1344 13.9889 15.8962 15.4432 17.1328C14.0186 18.6761 12.96 20.5756 12.4159 22.673ZM36.2881 26.6104C36.2881 28.6385 34.6359 30.2907 32.6078 30.2907H17.2734C15.2454 30.2907 13.5932 28.6385 13.5932 26.6104V25.9377C13.5932 19.7941 18.5002 14.7683 24.6043 14.5903C24.7131 14.6001 24.8318 14.6002 24.9406 14.6002C25.0495 14.6002 25.1682 14.6001 25.277 14.5903C31.3811 14.7683 36.2881 19.7941 36.2881 25.9377V26.6104ZM37.4654 22.673C36.9213 20.5855 35.8825 18.7157 34.4678 17.1724C35.9319 15.906 37.8314 15.1443 39.909 15.1245H40.0277C44.351 15.1542 47.9125 18.4585 48.3577 22.673H37.4654Z" fill="#121212"/>
</svg>
